<?xml version="1.0" standalone="no"?>
<!DOCTYPE svg PUBLIC "-//W3C//DTD SVG 20010904//EN"
 "http://www.w3.org/TR/2001/REC-SVG-20010904/DTD/svg10.dtd">
<svg version="1.0" xmlns="http://www.w3.org/2000/svg"
 width="448.000000pt" height="448.000000pt" viewBox="0 0 448.000000 448.000000"
 preserveAspectRatio="xMidYMid meet">
<metadata>
Created by potrace 1.11, written by Peter Selinger 2001-2013
</metadata>
<g transform="translate(0.000000,448.000000) scale(0.100000,-0.100000)"
fill="#000000" stroke="none">
<path d="M359 2958 c0 -2 -1 -37 -2 -78 l-1 -75 -36 -16 c-76 -34 -116 -124
-91 -202 13 -38 66 -97 87 -97 20 0 18 -14 -10 -73 -14 -29 -45 -99 -71 -157
-66 -150 -63 -147 -128 -145 -65 2 -89 -5 -78 -23 5 -8 30 -13 64 -13 31 -1
57 -2 57 -4 0 -7 -95 -220 -109 -245 -5 -9 -11 -29 -15 -46 -5 -24 -2 -34 18
-53 14 -13 23 -27 21 -32 -9 -13 -65 -173 -62 -175 4 -4 40 70 97 201 29 66
58 129 63 140 6 11 12 26 13 34 2 8 6 17 11 20 4 3 9 13 11 21 2 8 17 43 33
78 l29 62 50 0 c27 0 49 -3 49 -7 -1 -5 -1 -18 0 -30 2 -39 51 -24 54 16 1 20
6 22 52 19 43 -3 50 -6 53 -25 2 -13 8 -23 13 -23 5 0 9 -4 9 -9 0 -5 12 -35
27 -67 15 -33 27 -61 28 -64 18 -57 175 -370 185 -370 13 0 14 -6 -16 75 -14
39 -30 83 -36 98 -8 22 -7 32 5 45 20 23 16 44 -27 137 -21 44 -39 85 -40 90
-1 6 -9 24 -18 40 -8 17 -19 40 -22 52 -7 22 -5 23 47 22 62 -2 83 6 68 25 -7
8 -35 12 -77 11 -58 -1 -67 1 -74 19 -4 12 -28 64 -52 116 -83 178 -104 233
-89 238 26 9 79 63 89 91 17 49 7 117 -22 156 -24 31 -73 66 -93 65 -5 0 -9
26 -10 58 -1 31 -2 67 -2 80 -1 17 -7 22 -26 22 -14 0 -25 -1 -26 -2z m82
-235 c53 -32 61 -104 16 -152 -63 -67 -164 -32 -172 60 -7 87 79 137 156 92z
m9 -507 c22 -49 38 -91 36 -94 -3 -2 -21 -6 -41 -8 -25 -2 -35 1 -32 9 6 17
-11 47 -28 47 -14 0 -42 -41 -34 -50 2 -3 -11 -5 -29 -6 -18 0 -35 3 -38 7 -2
4 12 43 32 86 20 43 43 95 51 116 l16 38 13 -28 c7 -15 31 -68 54 -117z"/>
<path d="M1125 2627 c-53 -21 -74 -37 -91 -69 -18 -36 -12 -86 14 -113 16 -17
15 -20 -14 -51 -26 -27 -32 -41 -30 -71 4 -66 34 -97 118 -123 66 -20 229 -3
260 28 5 5 2 26 -8 51 -13 32 -21 41 -33 35 -99 -41 -202 -38 -214 7 -11 41
23 53 139 50 50 -1 57 14 45 90 -1 3 -31 6 -68 5 -74 -1 -109 16 -98 46 12 32
74 41 151 23 l53 -12 15 44 15 44 -27 11 c-38 15 -191 19 -227 5z"/>
<path d="M3132 2524 c-42 -21 -80 -65 -88 -102 -4 -21 -7 -39 -7 -42 1 -3 3
-19 6 -37 15 -95 137 -155 225 -111 32 16 32 16 32 -7 0 -13 -10 -34 -22 -45
-19 -17 -32 -20 -75 -17 -29 3 -64 12 -78 21 -23 15 -25 15 -37 -7 -7 -12 -11
-25 -10 -29 1 -5 -3 -8 -8 -8 -5 0 -10 -7 -10 -15 0 -25 73 -52 149 -54 99 -3
169 29 194 89 17 41 17 49 20 213 l2 157 -57 0 c-43 0 -58 -4 -58 -14 0 -11
-8 -10 -37 5 -41 21 -103 23 -141 3z m128 -85 c0 -5 4 -8 9 -5 12 8 29 -15 35
-48 12 -65 -81 -102 -129 -50 -19 21 -22 30 -14 56 4 17 10 32 11 33 31 24 88
33 88 14z"/>
<path d="M1434 2366 l0 -166 31 -1 c211 -6 265 6 290 63 15 38 3 83 -27 99
-20 11 -20 11 2 31 31 29 24 84 -13 112 -25 18 -45 21 -156 24 l-127 4 0 -166z
m205 79 c5 -3 7 -13 4 -24 -4 -15 -15 -19 -54 -20 -45 -1 -49 1 -49 23 0 12 3
25 6 29 7 7 80 1 93 -8z m11 -125 c10 -16 2 -40 -14 -41 -6 -1 -30 -2 -53 -3
-42 -1 -43 -1 -43 30 0 30 0 31 51 29 30 -1 54 -7 59 -15z"/>
<path d="M1827 2523 c-3 -5 -4 -79 -4 -165 0 -153 1 -158 21 -159 28 -1 90 2
94 5 1 2 3 28 3 59 2 78 24 77 75 -3 44 -67 21 -60 202 -63 82 -2 84 -1 107
27 13 17 23 32 23 35 0 3 1 8 2 11 4 10 10 66 13 115 l2 50 40 0 40 0 3 -117
3 -117 27 -3 c15 -2 41 -1 58 0 l31 4 0 164 0 164 -152 0 -152 0 -2 -85 c-3
-122 -13 -155 -47 -155 -8 0 -15 -10 -15 -22 -1 -13 -2 -27 -4 -33 -1 -5 -3
-14 -3 -20 -1 -5 -27 28 -58 74 l-56 84 51 73 c28 41 51 76 51 79 0 3 -25 5
-56 5 -62 0 -69 -5 -114 -79 -17 -28 -32 -41 -47 -41 -21 0 -23 4 -23 60 l0
60 -54 0 c-30 0 -57 -3 -59 -7z"/>
<path d="M2641 2413 c2 -89 7 -127 20 -153 31 -62 110 -86 184 -56 30 13 39
13 50 2 7 -7 24 -12 37 -10 12 1 32 3 44 3 21 1 21 5 21 166 l0 165 -58 0
c-58 0 -59 -1 -59 -27 -4 -172 -5 -185 -24 -199 -27 -19 -60 -18 -79 4 -14 15
-17 40 -17 120 l0 102 -60 0 -61 0 2 -117z"/>
<path d="M1001 1943 l0 -103 29 0 30 0 0 79 0 79 35 -1 c39 -1 44 -9 44 -77
-1 -81 -1 -80 30 -80 l28 0 -1 102 -1 101 -97 1 -97 1 0 -102z"/>
<path d="M1275 1991 c-35 -14 -49 -40 -52 -94 -4 -84 4 -114 30 -113 17 1 23
8 25 33 3 30 5 32 32 26 60 -12 109 58 80 113 -19 34 -75 51 -115 35z m63 -72
c2 -19 -2 -28 -17 -32 -22 -5 -41 9 -41 33 0 41 53 40 58 -1z"/>
<path d="M1463 1989 c-23 -8 -46 -42 -48 -72 -1 -10 11 -32 27 -49 25 -27 33
-30 71 -25 26 4 48 14 59 27 54 67 -24 151 -109 119z m70 -59 c7 -29 -19 -53
-44 -40 -20 11 -23 19 -13 44 9 23 51 20 57 -4z"/>
<path d="M1654 1990 c-29 -11 -52 -45 -49 -73 1 -12 3 -28 4 -34 2 -18 55 -43
88 -43 15 0 36 7 46 14 15 12 15 15 2 26 -8 7 -25 10 -39 6 -14 -3 -28 -2 -31
4 -3 5 -1 11 4 11 11 2 26 5 39 9 11 4 26 7 40 8 18 3 15 26 -7 51 -21 24 -64
33 -97 21z m57 -40 c6 0 7 -4 4 -10 -3 -5 -17 -10 -30 -10 -18 0 -23 4 -18 16
3 8 12 13 20 10 8 -3 19 -6 24 -6z"/>
<path d="M1797 1982 c-3 -9 -5 -45 -5 -79 0 -63 0 -63 29 -63 24 0 29 4 29 25
0 15 6 25 15 25 8 0 17 -11 21 -25 5 -21 12 -25 46 -25 l39 0 -25 33 c-31 41
-32 51 -6 84 42 54 -17 56 -61 2 l-28 -34 -1 35 c0 30 -4 36 -24 38 -16 1 -26
-4 -29 -16z"/>
<path d="M1989 1978 c0 -10 0 -38 0 -63 0 -78 -1 -77 28 -73 24 3 26 7 27 50
1 51 8 63 31 55 11 -5 15 -21 15 -57 0 -48 1 -50 28 -50 27 0 28 2 28 46 -1
34 4 50 17 58 24 15 37 -6 37 -61 0 -39 2 -43 24 -43 32 0 34 6 27 110 0 11
-12 27 -26 36 -20 13 -30 14 -59 4 -20 -6 -41 -8 -48 -4 -7 5 -39 9 -70 9 -49
1 -58 -2 -59 -17z"/>
<path d="M2287 1993 c-3 -4 -5 -41 -4 -81 l1 -72 29 0 c20 0 28 4 24 13 -7 20
8 40 32 44 17 2 21 -2 21 -27 0 -26 3 -30 29 -30 l29 0 -1 77 c-2 77 -2 78
-29 80 -25 2 -28 -2 -28 -28 0 -27 -3 -30 -27 -27 -23 2 -27 7 -25 26 2 12 -1
22 -7 22 -5 0 -16 3 -24 6 -8 3 -17 2 -20 -3z"/>
<path d="M2487 1993 c-10 -16 0 -124 12 -136 12 -12 104 -17 116 -6 3 4 8 22
11 41 8 44 -17 72 -58 66 -21 -4 -28 -1 -28 13 0 22 -42 40 -53 22z m87 -88
c7 -20 -23 -33 -34 -14 -5 7 -6 17 -4 21 9 13 32 9 38 -7z"/>
<path d="M2650 1919 l0 -79 28 0 27 0 0 78 0 77 -27 1 -28 1 0 -78z"/>
<path d="M2770 1987 c-36 -18 -52 -57 -39 -94 16 -46 82 -68 130 -42 17 8 18
13 8 25 -7 9 -21 13 -33 10 -12 -3 -28 -1 -36 4 -8 5 -13 10 -10 11 3 0 16 2
30 4 52 9 60 11 70 21 14 14 -30 61 -65 68 -17 3 -41 0 -55 -7z m64 -48 c-7
-12 -54 -12 -54 0 0 11 30 19 47 13 7 -2 10 -8 7 -13z"/>
<path d="M3028 1982 c-31 -21 -38 -32 -38 -63 0 -61 82 -100 135 -65 14 9 25
20 25 25 0 13 -43 21 -56 10 -20 -16 -44 1 -44 32 0 24 4 29 23 29 13 0 27 -4
33 -9 5 -6 16 -4 28 4 17 13 17 16 3 29 -23 23 -81 27 -109 8z"/>
<path d="M3176 1983 c-3 -10 -4 -39 -2 -66 3 -62 22 -76 104 -75 l62 0 0 77 0
77 -29 0 c-24 0 -28 -4 -29 -25 -1 -81 -1 -83 -24 -79 -20 3 -23 10 -26 56 -3
47 -5 52 -27 52 -14 0 -26 -7 -29 -17z"/>
<path d="M3404 1986 c-51 -22 -60 -81 -19 -121 30 -30 83 -33 116 -6 l23 18
-22 12 c-16 8 -28 9 -41 1 -23 -12 -56 14 -47 37 3 8 6 17 6 19 0 9 49 4 55
-6 8 -14 44 10 38 26 -10 27 -68 37 -109 20z"/>
<path d="M3540 1918 l0 -78 28 0 c26 0 28 3 29 46 2 51 13 70 37 61 12 -5 16
-20 16 -57 0 -49 1 -50 30 -50 29 0 30 1 30 49 0 52 12 70 34 52 8 -7 12 -28
11 -56 -3 -44 -2 -45 26 -45 28 0 29 2 29 50 0 27 -5 60 -11 74 -13 27 -54 39
-82 24 -10 -5 -26 -6 -35 -2 -9 4 -45 7 -79 8 l-63 1 0 -77z"/>
<path d="M3883 1985 c-43 -18 -60 -59 -40 -92 5 -7 5 -13 0 -13 -4 0 6 -9 22
-20 36 -24 84 -26 111 -5 16 13 17 16 4 25 -8 5 -27 7 -42 4 -14 -3 -29 -1
-32 5 -4 6 10 13 31 16 57 10 63 13 63 33 0 43 -65 69 -117 47z m62 -41 c0 -5
-12 -10 -27 -12 -28 -3 -39 12 -15 21 18 6 42 1 42 -9z"/>
<path d="M4028 1982 c-2 -9 -4 -44 -4 -77 1 -57 2 -60 26 -60 20 0 25 5 25 27
1 28 15 53 15 27 0 -8 7 -23 16 -34 15 -20 16 -19 44 15 l28 35 -3 -38 c-3
-33 -1 -37 21 -37 13 0 24 3 25 8 1 12 1 116 0 132 -2 24 -48 24 -56 0 -4 -11
-10 -20 -15 -20 -4 0 -10 -9 -13 -21 -3 -12 -10 -18 -17 -14 -6 4 -9 9 -6 12
3 3 -2 12 -10 20 -8 8 -12 19 -9 24 4 5 3 10 -2 10 -53 8 -61 6 -65 -9z"/>
<path d="M4258 1944 c-1 -30 0 -54 5 -54 4 0 7 -7 7 -15 0 -20 36 -37 73 -34
45 4 77 34 71 67 -7 36 -16 44 -61 52 -21 3 -37 11 -35 18 2 12 1 13 -35 17
-19 2 -22 -3 -25 -51z m95 -59 c-9 -16 -11 -16 -27 0 -13 14 -14 20 -5 32 11
12 14 12 27 0 10 -11 11 -20 5 -32z"/>
<path d="M4429 1996 c-1 0 -2 -36 -3 -78 l-2 -78 28 0 29 0 -3 78 c-3 72 -4
77 -25 78 -13 1 -24 1 -24 0z"/>
</g>
</svg>
